Special Thanks to ~PlutO~

General
Format                           : MPEG-4
Format profile                   : Base Media
Codec ID                         : isom
File size                        : 822 MiB
Duration                         : 2h 28mn
Overall bit rate                 : 776 Kbps

Video
ID                               : 1
Format                           : AVC
Format/Info                      : Advanced Video Codec
Format profile                   : High@L4.0
Format settings, CABAC           : Yes
Format settings, ReFrames        : 8 frames
Codec ID                         : avc1
Codec ID/Info                    : Advanced Video Coding
Duration                         : 2h 28mn
Bit rate mode                    : Variable
Bit rate                         : 650 Kbps
Maximum bit rate                 : 7 119 Kbps
Width                            : 1 280 pixels
Height                           : 522 pixels
Display aspect ratio             : 2.452
Frame rate mode                  : Constant
Frame rate                       : 23.976 fps
Color space                      : YUV
Chroma subsampling               : 4:2:0
Bit depth                        : 8 bits
Scan type                        : Progressive
Bits/(Pixel*Frame)               : 0.041
Stream size                      : 688 MiB (84%)
Title                            : Inception.2010.BRRiP_5.1_720p.x264
Writing library                  : x264 core 98 r1649 20cbe10


Audio
ID                               : 2
Format                           : AAC
Format/Info                      : Advanced Audio Codec
Format profile                   : HE-AAC / LC
Codec ID                         : 40
Duration                         : 2h 28mn
Bit rate mode                    : Variable
Bit rate                         : 124 Kbps
Maximum bit rate                 : 174 Kbps
Channel(s)                       : 6 channels
Channel positions                : Front: L C R, Side: L R, LFE
Sampling rate                    : 48.0 KHz / 24.0 KHz
Compression mode                 : Lossy
Stream size                      : 131 MiB (16%)
Title                            : Inception.2010.BRRiP_5.1_720p.x264
Language                         : English

Please Seed after Download :D